<?xml version="1.0" encoding="utf-8"?>
<svg xmlns="http://www.w3.org/2000/svg" width="900" height="500" viewBox="0 0 900 500" role="img" aria-label="Package history: @jayf0x/fluidity-js">
<title>pkgstory: @jayf0x/fluidity-js</title>
<desc>Historical size and download trend for @jayf0x/fluidity-js, 13 versions</desc>
<rect width="900" height="500" fill="#ffffff" rx="6" stroke="#d0d7de" stroke-width="1"/>
<line x1="0" y1="72" x2="900" y2="72" stroke="#d0d7de" stroke-width="1"/>
<g id="header">
  <text x="14" y="32" font-size="18" font-weight="700" fill="#1f2328" font-family="system-ui,sans-serif">@jayf0x/fluidity-js</text>
  <text x="14" y="52" font-size="11" fill="#6e7781" font-family="system-ui,sans-serif">v0.2.8 · 13 versions</text>
  
    <rect x="180" y="24" width="36" height="22" rx="3" fill="#0969da"/>
    <text x="198" y="39" text-anchor="middle" font-size="11" fill="#fff" font-weight="600" font-family="system-ui,sans-serif">size</text>
    <rect x="216" y="24" width="70" height="22" fill="#f3f4f6" stroke="#d0d7de" stroke-width="1"/>
    <text x="251" y="39" text-anchor="middle" font-size="11" fill="#1f2328" font-family="system-ui,sans-serif">224.8 KB</text>
    <rect x="292" y="24" width="68.5" height="22" rx="3" fill="#1a7f37"/>
    <text x="326.25" y="39" text-anchor="middle" font-size="11" fill="#fff" font-weight="600" font-family="system-ui,sans-serif">weekly dl</text>
    <rect x="360.5" y="24" width="55" height="22" fill="#f3f4f6" stroke="#d0d7de" stroke-width="1"/>
    <text x="388" y="39" text-anchor="middle" font-size="11" fill="#1f2328" font-family="system-ui,sans-serif">871/wk</text>
    <rect x="421.5" y="24" width="36" height="22" rx="3" fill="#6e7781"/>
    <text x="439.5" y="39" text-anchor="middle" font-size="11" fill="#fff" font-weight="600" font-family="system-ui,sans-serif">deps</text>
    <rect x="457.5" y="24" width="17.5" height="22" fill="#f3f4f6" stroke="#d0d7de" stroke-width="1"/>
    <text x="466.25" y="39" text-anchor="middle" font-size="11" fill="#1f2328" font-family="system-ui,sans-serif">0</text>
    <rect x="481" y="24" width="29.5" height="22" rx="3" fill="#6e7781"/>
    <text x="495.75" y="39" text-anchor="middle" font-size="11" fill="#fff" font-weight="600" font-family="system-ui,sans-serif">age</text>
    <rect x="510.5" y="24" width="32.5" height="22" fill="#f3f4f6" stroke="#d0d7de" stroke-width="1"/>
    <text x="526.75" y="39" text-anchor="middle" font-size="11" fill="#1f2328" font-family="system-ui,sans-serif">2mo</text></g>
<g id="annotations">
    <line x1="82.0" y1="96" x2="82.0" y2="410" stroke="#2ea043" stroke-width="1" stroke-dasharray="3,3" opacity="0.5"/>
    <rect x="82.0" y="76" width="91.5" height="20" rx="3" fill="#dff7e2" stroke="#2ea043" stroke-width="1"/>
    <text x="127.8" y="89" text-anchor="middle" font-size="10" fill="#116329" font-weight="600" font-family="system-ui,sans-serif">Types added</text>
    <line x1="82.0" y1="96" x2="82.0" y2="410" stroke="#2ea043" stroke-width="1" stroke-dasharray="3,3" opacity="0.5"/>
    <rect x="179.5" y="76" width="111" height="20" rx="3" fill="#dff7e2" stroke="#2ea043" stroke-width="1"/>
    <text x="235.0" y="89" text-anchor="middle" font-size="10" fill="#116329" font-weight="600" font-family="system-ui,sans-serif">Tree-shakeable</text></g>
<rect x="82" y="116" width="740" height="294" fill="none" stroke="#d0d7de" stroke-width="1"/>
<g id="grid">
<line x1="82" y1="410.0" x2="822" y2="410.0" stroke="#f3f4f6" stroke-width="1"/><text x="76" y="414.0" text-anchor="end" font-size="10" fill="#6e7781" font-family="system-ui,sans-serif">0 B</text><text x="828" y="414.0" text-anchor="start" font-size="10" fill="#1a7f37" font-family="system-ui,sans-serif">0</text><line x1="82" y1="351.2" x2="822" y2="351.2" stroke="#f3f4f6" stroke-width="1"/><text x="76" y="355.2" text-anchor="end" font-size="10" fill="#6e7781" font-family="system-ui,sans-serif">48.8 KB</text><text x="828" y="355.2" text-anchor="start" font-size="10" fill="#1a7f37" font-family="system-ui,sans-serif">100</text><line x1="82" y1="292.4" x2="822" y2="292.4" stroke="#f3f4f6" stroke-width="1"/><text x="76" y="296.4" text-anchor="end" font-size="10" fill="#6e7781" font-family="system-ui,sans-serif">97.7 KB</text><text x="828" y="296.4" text-anchor="start" font-size="10" fill="#1a7f37" font-family="system-ui,sans-serif">200</text><line x1="82" y1="233.6" x2="822" y2="233.6" stroke="#f3f4f6" stroke-width="1"/><text x="76" y="237.6" text-anchor="end" font-size="10" fill="#6e7781" font-family="system-ui,sans-serif">146.5 KB</text><text x="828" y="237.6" text-anchor="start" font-size="10" fill="#1a7f37" font-family="system-ui,sans-serif">300</text><line x1="82" y1="174.8" x2="822" y2="174.8" stroke="#f3f4f6" stroke-width="1"/><text x="76" y="178.8" text-anchor="end" font-size="10" fill="#6e7781" font-family="system-ui,sans-serif">195.3 KB</text><text x="828" y="178.8" text-anchor="start" font-size="10" fill="#1a7f37" font-family="system-ui,sans-serif">400</text><line x1="82" y1="116.0" x2="822" y2="116.0" stroke="#f3f4f6" stroke-width="1"/><text x="76" y="120.0" text-anchor="end" font-size="10" fill="#6e7781" font-family="system-ui,sans-serif">244.1 KB</text><text x="828" y="120.0" text-anchor="start" font-size="10" fill="#1a7f37" font-family="system-ui,sans-serif">500</text>

  <text transform="translate(24,263) rotate(-90)" text-anchor="middle" font-size="10" fill="#6e7781" font-family="system-ui,sans-serif">Size (unpacked)</text>
  <text transform="translate(884,263) rotate(90)" text-anchor="middle" font-size="10" fill="#1a7f37" font-family="system-ui,sans-serif">Downloads (trend)</text>
</g>
<g id="chart">

  <path d="M90.6,369.9 L106.0,376.1 L121.4,380.7 L136.8,389.1 L152.2,397.8 L167.7,407.2 L183.1,408.2 L198.5,408.9 L213.9,407.5 L229.4,407.2 L244.8,407.1 L260.2,407.1 L275.6,407.2 L291.0,407.5 L306.5,407.4 L321.9,409.1 L337.3,409.5 L352.7,409.6 L368.1,409.1 L383.6,399.2 L399.0,389.0 L414.4,389.1 L429.8,388.1 L445.2,386.8 L460.7,386.8 L476.1,387.3 L491.5,396.9 L506.9,406.8 L522.4,406.6 L537.8,407.7 L553.2,409.0 L568.6,409.0 L584.0,408.6 L599.5,408.5 L614.9,398.5 L630.3,396.8 L645.7,394.6 L661.1,394.5 L676.6,394.2 L692.0,394.6 L707.4,394.8 L722.8,403.4 L738.2,369.1 L753.7,347.4 L769.1,336.8 L784.5,337.1 L799.9,325.0 L815.3,308.4 L815.3,410 L90.6,410 Z" fill="rgba(26,127,55,0.08)"/>
  <polyline points="90.6,369.9 106.0,376.1 121.4,380.7 136.8,389.1 152.2,397.8 167.7,407.2 183.1,408.2 198.5,408.9 213.9,407.5 229.4,407.2 244.8,407.1 260.2,407.1 275.6,407.2 291.0,407.5 306.5,407.4 321.9,409.1 337.3,409.5 352.7,409.6 368.1,409.1 383.6,399.2 399.0,389.0 414.4,389.1 429.8,388.1 445.2,386.8 460.7,386.8 476.1,387.3 491.5,396.9 506.9,406.8 522.4,406.6 537.8,407.7 553.2,409.0 568.6,409.0 584.0,408.6 599.5,408.5 614.9,398.5 630.3,396.8 645.7,394.6 661.1,394.5 676.6,394.2 692.0,394.6 707.4,394.8 722.8,403.4 738.2,369.1 753.7,347.4 769.1,336.8 784.5,337.1 799.9,325.0 815.3,308.4"
    fill="none" stroke="#1a7f37" stroke-width="1.5" stroke-linejoin="round" stroke-linecap="round" opacity="0.85"/>
      <rect x="76.7" y="287.6" width="10.7" height="122.4" rx="1" fill="#0969da" opacity="0.85">
        <title>0.1.3: 101.7 KB unpacked</title>
      </rect>
      <rect x="94.0" y="291.1" width="8.8" height="118.9" rx="1" fill="#0969da" opacity="0.85">
        <title>0.1.4: 98.7 KB unpacked</title>
      </rect>
      <rect x="16.4" y="290.8" width="191.1" height="119.2" rx="1" fill="#0969da" opacity="0.85">
        <title>0.1.5: 99.0 KB unpacked</title>
      </rect>
      <rect x="394.6" y="286.3" width="22.7" height="123.7" rx="1" fill="#0969da" opacity="0.85">
        <title>0.1.6: 102.8 KB unpacked</title>
      </rect>
      <rect x="437.3" y="284.7" width="7.3" height="125.3" rx="1" fill="#0969da" opacity="0.85">
        <title>0.1.7: 104.1 KB unpacked</title>
      </rect>
      <rect x="381.0" y="198.0" width="142.4" height="212.0" rx="1" fill="#0969da" opacity="0.85">
        <title>0.2.1: 176.1 KB unpacked</title>
      </rect>
      <rect x="632.2" y="194.6" width="78.3" height="215.4" rx="1" fill="#0969da" opacity="0.85">
        <title>0.2.2: 178.9 KB unpacked</title>
      </rect>
      <rect x="790.9" y="178.0" width="2.0" height="232.0" rx="1" fill="#0969da" opacity="0.85">
        <title>0.2.3: 192.7 KB unpacked</title>
      </rect>
      <rect x="792.7" y="175.1" width="2.2" height="234.9" rx="1" fill="#0969da" opacity="0.85">
        <title>0.2.4: 195.1 KB unpacked</title>
      </rect>
      <rect x="792.6" y="171.8" width="9.2" height="238.2" rx="1" fill="#0969da" opacity="0.85">
        <title>0.2.5: 197.8 KB unpacked</title>
      </rect>
      <rect x="810.3" y="165.0" width="2.0" height="245.0" rx="1" fill="#0969da" opacity="0.85">
        <title>0.2.6: 203.4 KB unpacked</title>
      </rect>
      <rect x="807.8" y="165.0" width="7.0" height="245.0" rx="1" fill="#0969da" opacity="0.85">
        <title>0.2.7: 203.4 KB unpacked</title>
      </rect>
      <rect x="821.0" y="139.3" width="2.0" height="270.7" rx="1" fill="#0969da" opacity="0.85">
        <title>0.2.8: 224.8 KB unpacked</title>
      </rect>
</g>
<g id="x-axis"><line x1="82.0" y1="410" x2="82.0" y2="414" stroke="#d0d7de" stroke-width="1"/><line x1="98.4" y1="410" x2="98.4" y2="414" stroke="#d0d7de" stroke-width="1"/><line x1="111.9" y1="410" x2="111.9" y2="414" stroke="#d0d7de" stroke-width="1"/><line x1="406.0" y1="410" x2="406.0" y2="414" stroke="#d0d7de" stroke-width="1"/><line x1="441.0" y1="410" x2="441.0" y2="414" stroke="#d0d7de" stroke-width="1"/><line x1="452.2" y1="410" x2="452.2" y2="414" stroke="#d0d7de" stroke-width="1"/><line x1="671.4" y1="410" x2="671.4" y2="414" stroke="#d0d7de" stroke-width="1"/><line x1="791.9" y1="410" x2="791.9" y2="414" stroke="#d0d7de" stroke-width="1"/><line x1="793.8" y1="410" x2="793.8" y2="414" stroke="#d0d7de" stroke-width="1"/><line x1="797.2" y1="410" x2="797.2" y2="414" stroke="#d0d7de" stroke-width="1"/><line x1="811.3" y1="410" x2="811.3" y2="414" stroke="#d0d7de" stroke-width="1"/><line x1="811.3" y1="410" x2="811.3" y2="414" stroke="#d0d7de" stroke-width="1"/><line x1="822.0" y1="410" x2="822.0" y2="414" stroke="#d0d7de" stroke-width="1"/><text transform="translate(82.0,418) rotate(45)" font-size="9" fill="#6e7781" font-family="system-ui,sans-serif">v0.1.3</text><text transform="translate(822.0,418) rotate(45)" font-size="9" fill="#6e7781" font-family="system-ui,sans-serif">v0.2.8</text><line x1="82" y1="410" x2="822" y2="410" stroke="#d0d7de" stroke-width="1.5"/></g>
<line x1="82" y1="116" x2="82" y2="410" stroke="#d0d7de" stroke-width="1.5"/>
<line x1="822" y1="116" x2="822" y2="410" stroke="#d0d7de" stroke-width="1.5"/>
<g id="legend">
  <rect x="642" y="124" width="172" height="38" rx="4" fill="#ffffff" stroke="#d0d7de" stroke-width="1"/>
  <rect x="650" y="132" width="10" height="10" rx="1" fill="#0969da" opacity="0.85"/>
  <text x="664" y="141" font-size="10" fill="#1f2328" font-family="system-ui,sans-serif">Unpacked size</text>
  <line x1="650" y1="150" x2="660" y2="150" stroke="#1a7f37" stroke-width="2"/>
  <text x="664" y="154" font-size="10" fill="#1f2328" font-family="system-ui,sans-serif">Downloads (estimate)</text></g>
<g id="footer"><text x="82" y="442" font-size="9" fill="#9ea7b3" font-family="system-ui,sans-serif">⚠ Downloads during active period = trend estimate — not direct per-version data.</text><circle cx="87" cy="454" r="4" fill="#2ea043"/><text x="94" y="458" font-size="9" fill="#6e7781" font-family="system-ui,sans-serif">registry</text><circle cx="161" cy="454" r="4" fill="#2ea043"/><text x="168" y="458" font-size="9" fill="#6e7781" font-family="system-ui,sans-serif">downloads</text><circle cx="241.5" cy="454" r="4" fill="#2ea043"/><text x="248.5" y="458" font-size="9" fill="#6e7781" font-family="system-ui,sans-serif">tarballs</text><circle cx="315.5" cy="454" r="4" fill="#d0d7de"/><text x="322.5" y="458" font-size="9" fill="#6e7781" font-family="system-ui,sans-serif">packagephobia</text><circle cx="422" cy="454" r="4" fill="#2ea043"/><text x="429" y="458" font-size="9" fill="#6e7781" font-family="system-ui,sans-serif">github</text><text x="822" y="458" text-anchor="end" font-size="9" fill="#9ea7b3" font-family="system-ui,sans-serif">pkgstory · Jun 6, 2026</text></g>
</svg>